<?xml version="1.0" encoding="utf-8"?>
<!-- Generator: Adobe Illustrator 26.5.0, SVG Export Plug-In . SVG Version: 6.00 Build 0)  -->
<svg version="1.1" id="Capa_1" xmlns="http://www.w3.org/2000/svg" xmlns:xlink="http://www.w3.org/1999/xlink" x="0px" y="0px"
	 viewBox="0 0 1080 1080" style="enable-background:new 0 0 1080 1080;" xml:space="preserve">
<style type="text/css">
	.st0{fill:#DC1C74;}
	.st1{fill:#3E2A4D;}
	.st2{fill:#FFFFFF;}
	.st3{opacity:0.51;fill:#F0047F;}
	.st4{opacity:0.5;fill:#F0047F;}
	.st5{fill:#F0047F;}
	.st6{fill:#EBE0BE;}
	.st7{fill:#2B2B2B;}
	.st8{fill:#F4EED8;}
	.st9{fill:#0E0E15;}
	.st10{fill:#00BEB9;}
	.st11{fill:#727272;}
	.st12{fill:#E34932;}
	.st13{fill:#F065A6;}
	.st14{fill:#00A49F;}
	.st15{opacity:0.5;fill:#E34932;}
	.st16{opacity:0.5;fill:#00BEB9;}
	.st17{opacity:0.5;fill:#EBE0BE;}
	.st18{fill:#353537;}
	.st19{fill:#D5498F;}
</style>
<g>
	<path class="st0" d="M540.05,712.6c-76.06,0-152.15-1.03-228.18,0.44c-37.84,0.73-54.89-13.97-54.6-52.44
		c0.84-111.37,0.84-222.76,0.04-334.13c-0.28-38.35,17.51-53.63,54.58-53.5c153.48,0.52,306.97,0.56,460.46,0
		c35.9-0.13,52.52,15.86,52.44,51.46c-0.25,112.74-0.3,225.48,0.06,338.21c0.12,35.97-16.27,51-52.54,50.37
		C694.91,711.66,617.47,712.59,540.05,712.6z M539.5,327.98c-66.43,0-132.88,0.68-199.3-0.37c-23.2-0.37-34.44,4.93-34.05,31.31
		c1.3,89.46,1.15,178.97,0.16,268.44c-0.34,30.45,12.74,37.86,40.3,32.41c30.77-6.09,61.82-1.39,92.88-0.62
		c98.87,2.44,197.81,2.17,296.72,1.74c21.91-0.1,36.69-8.09,36.03-36.8c-2.01-88.08-1.52-176.25-0.26-264.36
		c0.37-25.51-9.07-32.58-33.19-32.14C672.39,328.78,605.94,328,539.5,327.98z"/>
	<g>
		<path class="st1" d="M542.73,744.08c-124.97,0-249.94-0.32-374.9,0.47c-13.08,0.08-34.23-9.64-37.95,11.02
			c-3.31,18.35,10.76,33.26,27.91,40.95c9.56,4.29,20.76,6.45,31.31,6.77c230.84,6.97,461.74,2.01,692.61,2.51
			c14.44,0.03,30.07-3.79,43.04-10.14c14.69-7.19,28.24-20.59,25.51-38.42c-3.46-22.62-24.01-12.52-36.69-12.6
			C789.95,743.82,666.34,744.15,542.73,744.08z"/>
		<path class="st0" d="M542.73,744.11c123.61,0.03,247.22-0.29,370.83,0.52c12.69,0.08,33.23-10.02,36.69,12.6
			c2.73,17.83-10.83,31.23-25.51,38.42c-12.97,6.34-28.59,10.17-43.04,10.14c-230.87-0.5-461.77,4.46-692.61-2.51
			c-10.55-0.32-21.75-2.48-31.31-6.77c-17.14-7.69-31.21-22.6-27.91-40.95c3.72-20.66,24.87-10.93,37.95-11.02
			C292.79,743.76,417.76,744.08,542.73,744.11z"/>
	</g>
	<path class="st2" d="M698.74,468.6c-0.03,6.71-0.19,13.42,0,20.12c0.58,21.07-5.69,39.93-29.42,39.46
		c-20.94-0.41-27.66-18.01-27.4-37.62c0.2-14.75-0.13-29.51,0.06-44.26c0.24-19.09,5.31-35.78,27.96-36.7
		c23.35-0.94,28.69,15.38,28.83,34.85C698.82,452.51,698.77,460.55,698.74,468.6z"/>
	<path class="st2" d="M438.39,470.55c-2.86,19.91,9.46,55.36-25.23,56.02c-39.73,0.76-23.05-37.06-27.06-59.76
		c-0.46-2.62-0.3-5.42-0.02-8.09c2.11-19.95-7.56-48.9,26.57-48.16c33.35,0.72,23.68,29.35,25.71,49.39
		C438.62,462.62,438.39,465.34,438.39,470.55z"/>
	<path class="st2" d="M482.13,526.53c8.87-0.95,10.26,6.35,13.65,11.93c28.47,46.83,67.31,47.62,96.02,1.89
		c3.97-6.32,4.44-18.54,15.07-14.06c12.54,5.28,5.12,16.03,1.87,24.22c-12.63,31.84-47.98,48.27-83.43,39.2
		C492.55,581.32,478.64,560.98,482.13,526.53z"/>
</g>
</svg>
